<svg width="1031" height="48" viewBox="0 0 1031 48" fill="none" xmlns="http://www.w3.org/2000/svg">
<path d="M37.5293 33.824V45.344H33.0653V38H5.41725L5.36925 45.344H0.90525L0.95325 33.824H2.58525C4.69725 33.696 6.18525 32.032 7.04925 28.832C7.91325 25.6 8.44125 21.056 8.63325 15.2L8.96925 4.4H32.5853V33.824H37.5293ZM12.8573 15.632C12.6973 20.368 12.3133 24.288 11.7053 27.392C11.1293 30.496 10.1853 32.64 8.87325 33.824H27.8333V8.576H13.0973L12.8573 15.632ZM64.1634 12.56V38H59.5554V16.592H48.6114L48.3234 22.256C48.1634 25.68 47.8594 28.544 47.4114 30.848C46.9634 33.12 46.2274 34.944 45.2034 36.32C44.1794 37.696 42.7554 38.384 40.9314 38.384C40.0994 38.384 39.1554 38.24 38.0994 37.952L38.3874 34.064C38.8034 34.16 39.1874 34.208 39.5394 34.208C40.8194 34.208 41.7794 33.648 42.4194 32.528C43.0594 31.408 43.4754 30.08 43.6674 28.544C43.8594 27.008 44.0354 24.816 44.1954 21.968L44.6274 12.56H64.1634ZM92.4734 12.56V38H88.3454V29.936H80.9534H80.4254L74.8574 38H69.9134L76.1054 29.312C74.1854 28.736 72.7134 27.792 71.6894 26.48C70.6654 25.136 70.1534 23.472 70.1534 21.488C70.1534 18.576 71.1454 16.368 73.1294 14.864C75.1134 13.328 77.8494 12.56 81.3374 12.56H92.4734ZM74.8574 21.632C74.8574 23.328 75.3854 24.592 76.4414 25.424C77.5294 26.224 79.1454 26.624 81.2894 26.624H88.3454V16.592H81.4814C77.0654 16.592 74.8574 18.272 74.8574 21.632ZM134.195 12.56V38H129.587V16.592H118.643L118.355 22.256C118.195 25.68 117.891 28.544 117.443 30.848C116.995 33.12 116.259 34.944 115.235 36.32C114.211 37.696 112.787 38.384 110.963 38.384C110.131 38.384 109.187 38.24 108.131 37.952L108.419 34.064C108.835 34.16 109.219 34.208 109.571 34.208C110.851 34.208 111.811 33.648 112.451 32.528C113.091 31.408 113.507 30.08 113.699 28.544C113.891 27.008 114.067 24.816 114.227 21.968L114.659 12.56H134.195ZM164.617 12.32C167.081 12.32 169.289 12.88 171.241 14C173.193 15.088 174.729 16.624 175.849 18.608C176.969 20.56 177.529 22.784 177.529 25.28C177.529 27.776 176.969 30.016 175.849 32C174.729 33.952 173.193 35.488 171.241 36.608C169.289 37.728 167.081 38.288 164.617 38.288C162.377 38.288 160.345 37.824 158.521 36.896C156.697 35.968 155.193 34.672 154.009 33.008C152.857 31.312 152.137 29.392 151.849 27.248H146.713V38H142.105V12.56H146.713V22.976H151.897C152.217 20.864 152.953 19.008 154.105 17.408C155.289 15.776 156.777 14.528 158.569 13.664C160.393 12.768 162.409 12.32 164.617 12.32ZM164.617 34.256C166.185 34.256 167.593 33.888 168.841 33.152C170.121 32.416 171.129 31.376 171.865 30.032C172.601 28.656 172.969 27.072 172.969 25.28C172.969 23.52 172.601 21.968 171.865 20.624C171.129 19.248 170.121 18.192 168.841 17.456C167.593 16.72 166.185 16.352 164.617 16.352C163.049 16.352 161.625 16.72 160.345 17.456C159.065 18.192 158.057 19.248 157.321 20.624C156.617 21.968 156.265 23.52 156.265 25.28C156.265 27.072 156.617 28.656 157.321 30.032C158.057 31.376 159.065 32.416 160.345 33.152C161.625 33.888 163.049 34.256 164.617 34.256ZM196.112 13.424C198.48 13.424 200.592 13.952 202.448 15.008C204.304 16.064 205.744 17.536 206.768 19.424C207.824 21.28 208.352 23.408 208.352 25.808C208.352 28.272 207.792 30.464 206.672 32.384C205.584 34.272 204.032 35.744 202.016 36.8C200.032 37.856 197.76 38.384 195.2 38.384C190.88 38.384 187.536 36.912 185.168 33.968C182.832 30.992 181.664 26.816 181.664 21.44C181.664 16.224 182.736 12.144 184.88 9.2C187.024 6.224 190.304 4.256 194.72 3.296L206.336 0.704L207.008 4.928L196.304 7.232C192.976 7.968 190.496 9.216 188.864 10.976C187.232 12.736 186.304 15.264 186.08 18.56C187.168 16.928 188.576 15.664 190.304 14.768C192.032 13.872 193.968 13.424 196.112 13.424ZM195.296 34.544C196.928 34.544 198.368 34.176 199.616 33.44C200.896 32.704 201.888 31.696 202.592 30.416C203.296 29.104 203.648 27.616 203.648 25.952C203.648 23.424 202.88 21.392 201.344 19.856C199.808 18.32 197.792 17.552 195.296 17.552C192.8 17.552 190.768 18.32 189.2 19.856C187.664 21.392 186.896 23.424 186.896 25.952C186.896 27.616 187.248 29.104 187.952 30.416C188.688 31.696 189.696 32.704 190.976 33.44C192.256 34.176 193.696 34.544 195.296 34.544ZM225.405 21.2C228.605 21.232 231.053 21.968 232.749 23.408C234.445 24.848 235.293 26.88 235.293 29.504C235.293 32.256 234.365 34.384 232.509 35.888C230.685 37.36 228.061 38.08 224.637 38.048L213.933 38V12.56H218.541V21.152L225.405 21.2ZM239.085 12.56H243.693V38H239.085V12.56ZM224.301 34.544C226.381 34.576 227.949 34.16 229.005 33.296C230.093 32.432 230.637 31.152 230.637 29.456C230.637 27.792 230.109 26.576 229.053 25.808C227.997 25.04 226.413 24.64 224.301 24.608L218.541 24.512V34.496L224.301 34.544ZM267.54 38L260.196 28.256L252.756 38H247.62L257.652 24.992L248.1 12.56H253.236L260.244 21.728L267.204 12.56H272.244L262.644 24.992L272.772 38H267.54ZM299.599 38.288C297.007 38.288 294.687 37.728 292.639 36.608C290.623 35.488 289.039 33.952 287.887 32C286.735 30.016 286.159 27.776 286.159 25.28C286.159 22.784 286.735 20.56 287.887 18.608C289.039 16.624 290.623 15.088 292.639 14C294.687 12.88 297.007 12.32 299.599 12.32C301.903 12.32 303.951 12.784 305.743 13.712C307.567 14.64 308.975 15.984 309.967 17.744L306.463 20C305.663 18.784 304.671 17.872 303.487 17.264C302.303 16.656 300.991 16.352 299.551 16.352C297.887 16.352 296.383 16.72 295.039 17.456C293.727 18.192 292.687 19.248 291.919 20.624C291.183 21.968 290.815 23.52 290.815 25.28C290.815 27.072 291.183 28.656 291.919 30.032C292.687 31.376 293.727 32.416 295.039 33.152C296.383 33.888 297.887 34.256 299.551 34.256C300.991 34.256 302.303 33.952 303.487 33.344C304.671 32.736 305.663 31.824 306.463 30.608L309.967 32.816C308.975 34.576 307.567 35.936 305.743 36.896C303.951 37.824 301.903 38.288 299.599 38.288ZM325.454 38.288C322.926 38.288 320.654 37.728 318.638 36.608C316.622 35.488 315.038 33.952 313.886 32C312.766 30.016 312.206 27.776 312.206 25.28C312.206 22.784 312.766 20.56 313.886 18.608C315.038 16.624 316.622 15.088 318.638 14C320.654 12.88 322.926 12.32 325.454 12.32C327.982 12.32 330.238 12.88 332.222 14C334.238 15.088 335.806 16.624 336.926 18.608C338.078 20.56 338.654 22.784 338.654 25.28C338.654 27.776 338.078 30.016 336.926 32C335.806 33.952 334.238 35.488 332.222 36.608C330.238 37.728 327.982 38.288 325.454 38.288ZM325.454 34.256C327.086 34.256 328.542 33.888 329.822 33.152C331.134 32.384 332.158 31.328 332.894 29.984C333.63 28.608 333.998 27.04 333.998 25.28C333.998 23.52 333.63 21.968 332.894 20.624C332.158 19.248 331.134 18.192 329.822 17.456C328.542 16.72 327.086 16.352 325.454 16.352C323.822 16.352 322.35 16.72 321.038 17.456C319.758 18.192 318.734 19.248 317.966 20.624C317.23 21.968 316.862 23.52 316.862 25.28C316.862 27.04 317.23 28.608 317.966 29.984C318.734 31.328 319.758 32.384 321.038 33.152C322.35 33.888 323.822 34.256 325.454 34.256ZM357.268 13.424C359.636 13.424 361.748 13.952 363.604 15.008C365.46 16.064 366.9 17.536 367.924 19.424C368.98 21.28 369.508 23.408 369.508 25.808C369.508 28.272 368.948 30.464 367.828 32.384C366.74 34.272 365.188 35.744 363.172 36.8C361.188 37.856 358.916 38.384 356.356 38.384C352.036 38.384 348.692 36.912 346.324 33.968C343.988 30.992 342.82 26.816 342.82 21.44C342.82 16.224 343.892 12.144 346.036 9.2C348.18 6.224 351.46 4.256 355.876 3.296L367.492 0.704L368.164 4.928L357.46 7.232C354.132 7.968 351.652 9.216 350.02 10.976C348.388 12.736 347.46 15.264 347.236 18.56C348.324 16.928 349.732 15.664 351.46 14.768C353.188 13.872 355.124 13.424 357.268 13.424ZM356.452 34.544C358.084 34.544 359.524 34.176 360.772 33.44C362.052 32.704 363.044 31.696 363.748 30.416C364.452 29.104 364.804 27.616 364.804 25.952C364.804 23.424 364.036 21.392 362.5 19.856C360.964 18.32 358.948 17.552 356.452 17.552C353.956 17.552 351.924 18.32 350.356 19.856C348.82 21.392 348.052 23.424 348.052 25.952C348.052 27.616 348.404 29.104 349.108 30.416C349.844 31.696 350.852 32.704 352.132 33.44C353.412 34.176 354.852 34.544 356.452 34.544ZM386.561 21.2C389.761 21.232 392.209 21.968 393.905 23.408C395.601 24.848 396.449 26.88 396.449 29.504C396.449 32.256 395.521 34.384 393.665 35.888C391.841 37.36 389.217 38.08 385.793 38.048L375.089 38V12.56H379.697V21.152L386.561 21.2ZM400.241 12.56H404.849V38H400.241V12.56ZM385.457 34.544C387.537 34.576 389.105 34.16 390.161 33.296C391.249 32.432 391.793 31.152 391.793 29.456C391.793 27.792 391.265 26.576 390.209 25.808C389.153 25.04 387.569 24.64 385.457 24.608L379.697 24.512V34.496L385.457 34.544ZM431.768 16.592H422.456V38H417.848V16.592H408.536V12.56H431.768V16.592ZM435.48 12.56H440.088V31.088L455.688 12.56H459.864V38H455.256V19.472L439.704 38H435.48V12.56ZM467.808 12.56H472.416V31.088L488.016 12.56H492.192V38H487.584V19.472L472.032 38H467.808V12.56ZM479.712 9.248C477.344 9.248 475.504 8.688 474.192 7.568C472.88 6.416 472.208 4.768 472.176 2.624H475.296C475.328 3.808 475.728 4.768 476.496 5.504C477.296 6.208 478.352 6.56 479.664 6.56C480.976 6.56 482.032 6.208 482.832 5.504C483.632 4.768 484.048 3.808 484.08 2.624H487.296C487.264 4.768 486.576 6.416 485.232 7.568C483.888 8.688 482.048 9.248 479.712 9.248ZM512.027 12.56H516.635V31.088L532.234 12.56H536.411V38H531.802V19.472L516.251 38H512.027V12.56ZM582.117 33.968V43.904H577.797V38H556.533V43.904H552.165V33.968H553.509C555.141 33.872 556.261 32.72 556.869 30.512C557.477 28.304 557.893 25.184 558.117 21.152L558.501 12.56H578.229V33.968H582.117ZM562.341 21.488C562.213 24.688 561.941 27.344 561.525 29.456C561.141 31.536 560.421 33.04 559.365 33.968H573.621V16.592H562.581L562.341 21.488ZM598.016 38.288C595.488 38.288 593.216 37.728 591.2 36.608C589.184 35.488 587.6 33.952 586.448 32C585.328 30.016 584.768 27.776 584.768 25.28C584.768 22.784 585.328 20.56 586.448 18.608C587.6 16.624 589.184 15.088 591.2 14C593.216 12.88 595.488 12.32 598.016 12.32C600.544 12.32 602.8 12.88 604.784 14C606.8 15.088 608.368 16.624 609.488 18.608C610.64 20.56 611.216 22.784 611.216 25.28C611.216 27.776 610.64 30.016 609.488 32C608.368 33.952 606.8 35.488 604.784 36.608C602.8 37.728 600.544 38.288 598.016 38.288ZM598.016 34.256C599.648 34.256 601.104 33.888 602.384 33.152C603.696 32.384 604.72 31.328 605.456 29.984C606.192 28.608 606.56 27.04 606.56 25.28C606.56 23.52 606.192 21.968 605.456 20.624C604.72 19.248 603.696 18.192 602.384 17.456C601.104 16.72 599.648 16.352 598.016 16.352C596.384 16.352 594.912 16.72 593.6 17.456C592.32 18.192 591.296 19.248 590.528 20.624C589.792 21.968 589.424 23.52 589.424 25.28C589.424 27.04 589.792 28.608 590.528 29.984C591.296 31.328 592.32 32.384 593.6 33.152C594.912 33.888 596.384 34.256 598.016 34.256ZM630.358 12.32C632.822 12.32 635.03 12.864 636.982 13.952C638.934 15.04 640.454 16.56 641.542 18.512C642.662 20.464 643.222 22.72 643.222 25.28C643.222 27.84 642.662 30.112 641.542 32.096C640.454 34.048 638.934 35.568 636.982 36.656C635.03 37.744 632.822 38.288 630.358 38.288C628.534 38.288 626.854 37.936 625.318 37.232C623.814 36.528 622.534 35.504 621.478 34.16V47.312H616.87V12.56H621.286V16.592C622.31 15.184 623.606 14.128 625.174 13.424C626.742 12.688 628.47 12.32 630.358 12.32ZM629.974 34.256C631.606 34.256 633.062 33.888 634.342 33.152C635.654 32.384 636.678 31.328 637.414 29.984C638.182 28.608 638.566 27.04 638.566 25.28C638.566 23.52 638.182 21.968 637.414 20.624C636.678 19.248 635.654 18.192 634.342 17.456C633.062 16.72 631.606 16.352 629.974 16.352C628.374 16.352 626.918 16.736 625.606 17.504C624.326 18.24 623.302 19.28 622.534 20.624C621.798 21.968 621.43 23.52 621.43 25.28C621.43 27.04 621.798 28.608 622.534 29.984C623.27 31.328 624.294 32.384 625.606 33.152C626.918 33.888 628.374 34.256 629.974 34.256ZM659.813 38.288C657.285 38.288 655.013 37.728 652.997 36.608C650.981 35.488 649.397 33.952 648.245 32C647.125 30.016 646.565 27.776 646.565 25.28C646.565 22.784 647.125 20.56 648.245 18.608C649.397 16.624 650.981 15.088 652.997 14C655.013 12.88 657.285 12.32 659.813 12.32C662.341 12.32 664.597 12.88 666.581 14C668.597 15.088 670.165 16.624 671.285 18.608C672.437 20.56 673.013 22.784 673.013 25.28C673.013 27.776 672.437 30.016 671.285 32C670.165 33.952 668.597 35.488 666.581 36.608C664.597 37.728 662.341 38.288 659.813 38.288ZM659.813 34.256C661.445 34.256 662.901 33.888 664.181 33.152C665.493 32.384 666.517 31.328 667.253 29.984C667.989 28.608 668.357 27.04 668.357 25.28C668.357 23.52 667.989 21.968 667.253 20.624C666.517 19.248 665.493 18.192 664.181 17.456C662.901 16.72 661.445 16.352 659.813 16.352C658.181 16.352 656.709 16.72 655.397 17.456C654.117 18.192 653.093 19.248 652.325 20.624C651.589 21.968 651.221 23.52 651.221 25.28C651.221 27.04 651.589 28.608 652.325 29.984C653.093 31.328 654.117 32.384 655.397 33.152C656.709 33.888 658.181 34.256 659.813 34.256ZM697.387 16.592H683.275V38H678.667V12.56H697.387V16.592ZM701.105 12.56H705.713V31.088L721.313 12.56H725.489V38H720.881V19.472L705.329 38H701.105V12.56ZM749.321 38L741.977 28.256L734.537 38H729.401L739.433 24.992L729.881 12.56H735.017L742.025 21.728L748.985 12.56H754.025L744.425 24.992L754.553 38H749.321ZM787.62 24.8C790.916 25.632 792.564 27.696 792.564 30.992C792.564 33.232 791.716 34.96 790.02 36.176C788.356 37.392 785.86 38 782.532 38H770.292V12.56H782.1C785.108 12.56 787.46 13.136 789.156 14.288C790.852 15.408 791.7 17.008 791.7 19.088C791.7 20.432 791.332 21.6 790.596 22.592C789.892 23.552 788.9 24.288 787.62 24.8ZM774.804 23.504H781.716C783.476 23.504 784.804 23.184 785.7 22.544C786.628 21.904 787.092 20.976 787.092 19.76C787.092 17.328 785.3 16.112 781.716 16.112H774.804V23.504ZM782.196 34.448C784.116 34.448 785.556 34.144 786.516 33.536C787.476 32.928 787.956 31.984 787.956 30.704C787.956 29.392 787.508 28.416 786.612 27.776C785.748 27.136 784.372 26.816 782.484 26.816H774.804V34.448H782.196ZM807.849 12.32C811.369 12.32 814.057 13.184 815.913 14.912C817.801 16.64 818.745 19.216 818.745 22.64V38H814.377V34.64C813.609 35.824 812.505 36.736 811.065 37.376C809.657 37.984 807.977 38.288 806.025 38.288C803.177 38.288 800.889 37.6 799.161 36.224C797.465 34.848 796.617 33.04 796.617 30.8C796.617 28.56 797.433 26.768 799.065 25.424C800.697 24.048 803.289 23.36 806.841 23.36H814.137V22.448C814.137 20.464 813.561 18.944 812.409 17.888C811.257 16.832 809.561 16.304 807.321 16.304C805.817 16.304 804.345 16.56 802.905 17.072C801.465 17.552 800.249 18.208 799.257 19.04L797.337 15.584C798.649 14.528 800.217 13.728 802.041 13.184C803.865 12.608 805.801 12.32 807.849 12.32ZM806.793 34.736C808.553 34.736 810.073 34.352 811.353 33.584C812.633 32.784 813.561 31.664 814.137 30.224V26.672H807.033C803.129 26.672 801.177 27.984 801.177 30.608C801.177 31.888 801.673 32.896 802.665 33.632C803.657 34.368 805.033 34.736 806.793 34.736ZM855.37 12.56V38H851.194V19.424L841.69 35.12H839.674L830.266 19.376V38H826.042V12.56H830.794L840.778 29.744L851.05 12.56H855.37ZM897.07 12.56V38H892.462V16.592H881.518L881.23 22.256C881.07 25.68 880.766 28.544 880.318 30.848C879.87 33.12 879.134 34.944 878.11 36.32C877.086 37.696 875.662 38.384 873.838 38.384C873.006 38.384 872.062 38.24 871.006 37.952L871.294 34.064C871.71 34.16 872.094 34.208 872.446 34.208C873.726 34.208 874.686 33.648 875.326 32.528C875.966 31.408 876.382 30.08 876.574 28.544C876.766 27.008 876.942 24.816 877.102 21.968L877.534 12.56H897.07ZM927.492 12.32C929.956 12.32 932.164 12.88 934.116 14C936.068 15.088 937.604 16.624 938.724 18.608C939.844 20.56 940.404 22.784 940.404 25.28C940.404 27.776 939.844 30.016 938.724 32C937.604 33.952 936.068 35.488 934.116 36.608C932.164 37.728 929.956 38.288 927.492 38.288C925.252 38.288 923.22 37.824 921.396 36.896C919.572 35.968 918.068 34.672 916.884 33.008C915.732 31.312 915.012 29.392 914.724 27.248H909.588V38H904.98V12.56H909.588V22.976H914.772C915.092 20.864 915.828 19.008 916.98 17.408C918.164 15.776 919.652 14.528 921.444 13.664C923.268 12.768 925.284 12.32 927.492 12.32ZM927.492 34.256C929.06 34.256 930.468 33.888 931.716 33.152C932.996 32.416 934.004 31.376 934.74 30.032C935.476 28.656 935.844 27.072 935.844 25.28C935.844 23.52 935.476 21.968 934.74 20.624C934.004 19.248 932.996 18.192 931.716 17.456C930.468 16.72 929.06 16.352 927.492 16.352C925.924 16.352 924.5 16.72 923.22 17.456C921.94 18.192 920.932 19.248 920.196 20.624C919.492 21.968 919.14 23.52 919.14 25.28C919.14 27.072 919.492 28.656 920.196 30.032C920.932 31.376 921.94 32.416 923.22 33.152C924.5 33.888 925.924 34.256 927.492 34.256ZM971.711 33.968V43.904H967.391V38H946.127V43.904H941.759V33.968H943.103C944.735 33.872 945.855 32.72 946.463 30.512C947.071 28.304 947.487 25.184 947.711 21.152L948.095 12.56H967.823V33.968H971.711ZM951.935 21.488C951.807 24.688 951.535 27.344 951.119 29.456C950.735 31.536 950.015 33.04 948.959 33.968H963.215V16.592H952.175L951.935 21.488ZM999.706 25.424C999.706 25.776 999.674 26.24 999.61 26.816H978.97C979.258 29.056 980.234 30.864 981.898 32.24C983.594 33.584 985.69 34.256 988.186 34.256C991.226 34.256 993.674 33.232 995.53 31.184L998.074 34.16C996.922 35.504 995.482 36.528 993.754 37.232C992.058 37.936 990.154 38.288 988.042 38.288C985.354 38.288 982.97 37.744 980.89 36.656C978.81 35.536 977.194 33.984 976.042 32C974.922 30.016 974.362 27.776 974.362 25.28C974.362 22.816 974.906 20.592 975.994 18.608C977.114 16.624 978.634 15.088 980.554 14C982.506 12.88 984.698 12.32 987.13 12.32C989.562 12.32 991.722 12.88 993.61 14C995.53 15.088 997.018 16.624 998.074 18.608C999.162 20.592 999.706 22.864 999.706 25.424ZM987.13 16.208C984.922 16.208 983.066 16.88 981.562 18.224C980.09 19.568 979.226 21.328 978.97 23.504H995.29C995.034 21.36 994.154 19.616 992.65 18.272C991.178 16.896 989.338 16.208 987.13 16.208ZM1005.85 12.56H1010.46V31.088L1026.06 12.56H1030.24V38H1025.63V19.472L1010.08 38H1005.85V12.56ZM1017.76 9.248C1015.39 9.248 1013.55 8.688 1012.24 7.568C1010.93 6.416 1010.25 4.768 1010.22 2.624H1013.34C1013.37 3.808 1013.77 4.768 1014.54 5.504C1015.34 6.208 1016.4 6.56 1017.71 6.56C1019.02 6.56 1020.08 6.208 1020.88 5.504C1021.68 4.768 1022.09 3.808 1022.13 2.624H1025.34C1025.31 4.768 1024.62 6.416 1023.28 7.568C1021.93 8.688 1020.09 9.248 1017.76 9.248Z" fill="#2E363E"/>
</svg>
