<svg width="35" height="38" viewBox="0 0 35 38" fill="none" xmlns="http://www.w3.org/2000/svg">
<path d="M0.377563 16.08C0.377563 7.62579 7.23102 0.772339 15.6852 0.772339V21.9179C15.6852 30.3721 8.83173 37.2255 0.377563 37.2255V16.08Z" fill="#4A3AFF"/>
<path d="M17.9061 9.09033C17.9061 4.49641 21.6302 0.772293 26.2241 0.772293C30.818 0.772293 34.5421 4.4964 34.5421 9.09033V9.57057C34.5421 14.1645 30.818 17.8886 26.2241 17.8886C21.6302 17.8886 17.9061 14.1645 17.9061 9.57057V9.09033Z" fill="#4CBFFF"/>
<path d="M17.9061 28.4275C17.9061 23.8336 21.6302 20.1095 26.2241 20.1095C30.818 20.1095 34.5421 23.8336 34.5421 28.4275V28.9078C34.5421 33.5017 30.818 37.2258 26.2241 37.2258C21.6302 37.2258 17.9061 33.5017 17.9061 28.9078V28.4275Z" fill="#962DFF"/>
</svg>
